<mxfile host="65bd71144e">
    <diagram id="IIjVqOBpjSdmMeE91z1N" name="Page-1">
        <mxGraphModel dx="772" dy="1082" grid="1" gridSize="10" guides="1" tooltips="1" connect="1" arrows="1" fold="1" page="0" pageScale="1" pageWidth="850" pageHeight="1100" background="none" math="0" shadow="1">
            <root>
                <mxCell id="0"/>
                <mxCell id="1" parent="0"/>
                <mxCell id="3" value="" style="rhombus;whiteSpace=wrap;html=1;strokeWidth=5;fillColor=#EBE543;strokeColor=#1E2563;shadow=1;sketch=0;" parent="1" vertex="1">
                    <mxGeometry x="386" y="330" width="80" height="80" as="geometry"/>
                </mxCell>
                <mxCell id="64" value="" style="rhombus;whiteSpace=wrap;html=1;strokeWidth=5;fillColor=#EBE543;strokeColor=#1E2563;shadow=1;sketch=0;" parent="1" vertex="1">
                    <mxGeometry x="387" y="416" width="80" height="80" as="geometry"/>
                </mxCell>
                <mxCell id="6" value="" style="ellipse;whiteSpace=wrap;html=1;aspect=fixed;strokeWidth=5;fillColor=#EBE543;strokeColor=#1E2563;shadow=1;sketch=0;" parent="1" vertex="1">
                    <mxGeometry x="735.25" y="595" width="50" height="50" as="geometry"/>
                </mxCell>
                <mxCell id="61" value="&lt;font color=&quot;#1e2563&quot;&gt;&lt;span style=&quot;font-size: 30px&quot;&gt;&lt;b&gt;Insight and Revision&lt;/b&gt;&lt;/span&gt;&lt;/font&gt;" style="rounded=1;whiteSpace=wrap;html=1;strokeWidth=5;fillColor=#EBE543;strokeColor=#1E2563;align=center;shadow=1;sketch=0;" parent="1" vertex="1">
                    <mxGeometry x="430" y="585" width="250" height="70" as="geometry"/>
                </mxCell>
                <mxCell id="62" style="edgeStyle=orthogonalEdgeStyle;rounded=0;orthogonalLoop=1;jettySize=auto;html=1;exitX=1;exitY=0.5;exitDx=0;exitDy=0;entryX=0;entryY=0.5;entryDx=0;entryDy=0;strokeColor=#000000;strokeWidth=5;shadow=1;sketch=0;" parent="1" source="35" target="61" edge="1">
                    <mxGeometry relative="1" as="geometry"/>
                </mxCell>
                <mxCell id="35" value="&lt;font color=&quot;#1e2563&quot;&gt;&lt;span style=&quot;font-size: 30px&quot;&gt;&lt;b&gt;Plotting and Inspection&lt;/b&gt;&lt;/span&gt;&lt;/font&gt;" style="rounded=1;whiteSpace=wrap;html=1;strokeWidth=5;fillColor=#EBE543;strokeColor=#1E2563;align=center;shadow=1;sketch=0;" parent="1" vertex="1">
                    <mxGeometry x="41" y="585" width="250" height="70" as="geometry"/>
                </mxCell>
                <mxCell id="34" style="edgeStyle=orthogonalEdgeStyle;rounded=0;orthogonalLoop=1;jettySize=auto;html=1;exitX=0.5;exitY=1;exitDx=0;exitDy=0;strokeColor=#000000;strokeWidth=5;entryX=0.5;entryY=0;entryDx=0;entryDy=0;shadow=1;sketch=0;" parent="1" source="30" target="35" edge="1">
                    <mxGeometry relative="1" as="geometry">
                        <mxPoint x="426.5" y="630" as="targetPoint"/>
                        <Array as="points">
                            <mxPoint x="426" y="576"/>
                            <mxPoint x="315" y="576"/>
                            <mxPoint x="315" y="541"/>
                            <mxPoint x="166" y="541"/>
                        </Array>
                    </mxGeometry>
                </mxCell>
                <mxCell id="30" value="" style="rounded=0;whiteSpace=wrap;html=1;strokeWidth=5;fillColor=#EBE543;strokeColor=#1E2563;shadow=1;sketch=0;" parent="1" vertex="1">
                    <mxGeometry x="338" y="526" width="175" height="30" as="geometry"/>
                </mxCell>
                <mxCell id="31" style="edgeStyle=orthogonalEdgeStyle;rounded=0;orthogonalLoop=1;jettySize=auto;html=1;exitX=1;exitY=1;exitDx=0;exitDy=0;entryX=0.75;entryY=0;entryDx=0;entryDy=0;strokeColor=#000000;strokeWidth=5;shadow=1;sketch=0;" parent="1" source="27" target="30" edge="1">
                    <mxGeometry relative="1" as="geometry">
                        <Array as="points">
                            <mxPoint x="446" y="496"/>
                            <mxPoint x="469" y="496"/>
                        </Array>
                    </mxGeometry>
                </mxCell>
                <mxCell id="32" style="edgeStyle=orthogonalEdgeStyle;rounded=0;orthogonalLoop=1;jettySize=auto;html=1;exitX=0;exitY=1;exitDx=0;exitDy=0;entryX=0.25;entryY=0;entryDx=0;entryDy=0;strokeColor=#000000;strokeWidth=5;shadow=1;sketch=0;" parent="1" source="27" target="30" edge="1">
                    <mxGeometry relative="1" as="geometry">
                        <Array as="points">
                            <mxPoint x="406" y="496"/>
                            <mxPoint x="382" y="496"/>
                        </Array>
                    </mxGeometry>
                </mxCell>
                <mxCell id="33" style="edgeStyle=orthogonalEdgeStyle;rounded=0;orthogonalLoop=1;jettySize=auto;html=1;exitX=0.5;exitY=1;exitDx=0;exitDy=0;entryX=0.5;entryY=0;entryDx=0;entryDy=0;strokeColor=#000000;strokeWidth=5;shadow=1;sketch=0;" parent="1" source="27" target="30" edge="1">
                    <mxGeometry relative="1" as="geometry"/>
                </mxCell>
                <mxCell id="27" value="" style="rhombus;whiteSpace=wrap;html=1;strokeWidth=5;fillColor=#EBE543;strokeColor=#1E2563;shadow=1;sketch=0;" parent="1" vertex="1">
                    <mxGeometry x="386" y="416" width="80" height="80" as="geometry"/>
                </mxCell>
                <mxCell id="29" style="edgeStyle=orthogonalEdgeStyle;rounded=0;orthogonalLoop=1;jettySize=auto;html=1;exitX=0.5;exitY=1;exitDx=0;exitDy=0;entryX=0;entryY=0.5;entryDx=0;entryDy=0;strokeColor=#000000;strokeWidth=5;shadow=1;sketch=0;" parent="1" source="67" target="27" edge="1">
                    <mxGeometry relative="1" as="geometry">
                        <mxPoint x="165" y="476" as="sourcePoint"/>
                    </mxGeometry>
                </mxCell>
                <mxCell id="28" style="edgeStyle=orthogonalEdgeStyle;rounded=0;orthogonalLoop=1;jettySize=auto;html=1;exitX=0.5;exitY=1;exitDx=0;exitDy=0;entryX=1;entryY=0.5;entryDx=0;entryDy=0;strokeColor=#000000;strokeWidth=5;shadow=1;sketch=0;" parent="1" source="24" target="27" edge="1">
                    <mxGeometry relative="1" as="geometry"/>
                </mxCell>
                <mxCell id="67" value="&lt;font color=&quot;#1e2563&quot;&gt;&lt;span style=&quot;font-size: 30px&quot;&gt;&lt;b&gt;Submission Processing&lt;/b&gt;&lt;/span&gt;&lt;/font&gt;" style="rounded=1;whiteSpace=wrap;html=1;strokeWidth=5;fillColor=#EBE543;strokeColor=#1E2563;align=center;shadow=1;sketch=0;" parent="1" vertex="1">
                    <mxGeometry x="30" y="400" width="250" height="70" as="geometry"/>
                </mxCell>
                <mxCell id="24" value="&lt;font color=&quot;#1e2563&quot;&gt;&lt;span style=&quot;font-size: 30px&quot;&gt;&lt;b&gt;Comment Processing&lt;/b&gt;&lt;/span&gt;&lt;/font&gt;" style="rounded=1;whiteSpace=wrap;html=1;strokeWidth=5;fillColor=#EBE543;strokeColor=#1E2563;align=center;shadow=1;sketch=0;" parent="1" vertex="1">
                    <mxGeometry x="575" y="400" width="250" height="70" as="geometry"/>
                </mxCell>
                <mxCell id="59" style="edgeStyle=orthogonalEdgeStyle;rounded=0;orthogonalLoop=1;jettySize=auto;html=1;exitX=1;exitY=0.5;exitDx=0;exitDy=0;entryX=0.5;entryY=0;entryDx=0;entryDy=0;strokeColor=#000000;strokeWidth=5;shadow=1;sketch=0;" parent="1" source="66" target="24" edge="1">
                    <mxGeometry relative="1" as="geometry">
                        <Array as="points">
                            <mxPoint x="700" y="370"/>
                        </Array>
                    </mxGeometry>
                </mxCell>
                <mxCell id="60" style="edgeStyle=orthogonalEdgeStyle;rounded=0;orthogonalLoop=1;jettySize=auto;html=1;exitX=0;exitY=0.5;exitDx=0;exitDy=0;entryX=0.5;entryY=0;entryDx=0;entryDy=0;strokeColor=#000000;strokeWidth=5;shadow=1;sketch=0;" parent="1" source="66" target="67" edge="1">
                    <mxGeometry relative="1" as="geometry">
                        <Array as="points">
                            <mxPoint x="155" y="370"/>
                        </Array>
                    </mxGeometry>
                </mxCell>
                <mxCell id="66" value="" style="rhombus;whiteSpace=wrap;html=1;strokeWidth=5;fillColor=#EBE543;strokeColor=#1E2563;shadow=1;sketch=0;" parent="1" vertex="1">
                    <mxGeometry x="387" y="330" width="80" height="80" as="geometry"/>
                </mxCell>
                <mxCell id="57" style="edgeStyle=orthogonalEdgeStyle;rounded=0;orthogonalLoop=1;jettySize=auto;html=1;exitX=0.5;exitY=1;exitDx=0;exitDy=0;entryX=0;entryY=0;entryDx=0;entryDy=0;strokeColor=#000000;strokeWidth=5;shadow=1;sketch=0;" parent="1" source="13" target="3" edge="1">
                    <mxGeometry relative="1" as="geometry">
                        <Array as="points">
                            <mxPoint x="130" y="320"/>
                            <mxPoint x="406" y="320"/>
                        </Array>
                    </mxGeometry>
                </mxCell>
                <mxCell id="56" style="edgeStyle=orthogonalEdgeStyle;rounded=0;orthogonalLoop=1;jettySize=auto;html=1;exitX=0.5;exitY=1;exitDx=0;exitDy=0;entryX=1;entryY=0;entryDx=0;entryDy=0;strokeColor=#000000;strokeWidth=5;shadow=1;sketch=0;" parent="1" source="14" target="3" edge="1">
                    <mxGeometry relative="1" as="geometry">
                        <Array as="points">
                            <mxPoint x="725" y="320"/>
                            <mxPoint x="446" y="320"/>
                        </Array>
                    </mxGeometry>
                </mxCell>
                <mxCell id="55" style="edgeStyle=orthogonalEdgeStyle;rounded=0;orthogonalLoop=1;jettySize=auto;html=1;exitX=0.5;exitY=1;exitDx=0;exitDy=0;strokeColor=#000000;strokeWidth=5;shadow=1;sketch=0;" parent="1" source="17" target="3" edge="1">
                    <mxGeometry relative="1" as="geometry"/>
                </mxCell>
                <mxCell id="13" value="&lt;font color=&quot;#1e2563&quot; size=&quot;1&quot;&gt;&lt;b style=&quot;font-size: 30px&quot;&gt;Reference Analysis&lt;/b&gt;&lt;/font&gt;&lt;span style=&quot;color: rgba(0 , 0 , 0 , 0) ; font-family: monospace ; font-size: 0px&quot;&gt;%3CmxGraphModel%3E%3Croot%3E%3CmxCell%20id%3D%220%22%2F%3E%3CmxCell%20id%3D%221%22%20parent%3D%220%22%2F%3E%3CmxCell%20id%3D%222%22%20value%3D%22%26lt%3Bfont%20color%3D%26quot%3B%231e2563%26quot%3B%20size%3D%26quot%3B1%26quot%3B%26gt%3B%26lt%3Bb%20style%3D%26quot%3Bfont-size%3A%2030px%26quot%3B%26gt%3BCommunity%20Binning%26lt%3B%2Fb%26gt%3B%26lt%3B%2Ffont%26gt%3B%22%20style%3D%22rounded%3D1%3BwhiteSpace%3Dwrap%3Bhtml%3D1%3BstrokeWidth%3D5%3BfillColor%3D%23EBE543%3BstrokeColor%3D%231E2563%3Balign%3Dcenter%3B%22%20vertex%3D%221%22%20parent%3D%221%22%3E%3CmxGeometry%20x%3D%22300%22%20y%3D%22260%22%20width%3D%22250%22%20height%3D%2270%22%20as%3D%22geometry%22%2F%3E%3C%2FmxCell%3E%3C%2Froot%3E%3C%2FmxGraphModel%3E&lt;/span&gt;" style="rounded=1;whiteSpace=wrap;html=1;strokeWidth=5;fillColor=#EBE543;strokeColor=#1E2563;align=center;shadow=1;sketch=0;" parent="1" vertex="1">
                    <mxGeometry x="30" y="230" width="200" height="70" as="geometry"/>
                </mxCell>
                <mxCell id="14" value="&lt;font color=&quot;#1e2563&quot; size=&quot;1&quot;&gt;&lt;b style=&quot;font-size: 30px&quot;&gt;Author Analysis&lt;/b&gt;&lt;/font&gt;&lt;span style=&quot;color: rgba(0 , 0 , 0 , 0) ; font-family: monospace ; font-size: 0px&quot;&gt;%3CmxGraphModel%3E%3Croot%3E%3CmxCell%20id%3D%220%22%2F%3E%3CmxCell%20id%3D%221%22%20parent%3D%220%22%2F%3E%3CmxCell%20id%3D%222%22%20value%3D%22%26lt%3Bfont%20color%3D%26quot%3B%231e2563%26quot%3B%20size%3D%26quot%3B1%26quot%3B%26gt%3B%26lt%3Bb%20style%3D%26quot%3Bfont-size%3A%2030px%26quot%3B%26gt%3BCommunity%20Binning%26lt%3B%2Fb%26gt%3B%26lt%3B%2Ffont%26gt%3B%22%20style%3D%22rounded%3D1%3BwhiteSpace%3Dwrap%3Bhtml%3D1%3BstrokeWidth%3D5%3BfillColor%3D%23EBE543%3BstrokeColor%3D%231E2563%3Balign%3Dcenter%3B%22%20vertex%3D%221%22%20parent%3D%221%22%3E%3CmxGeometry%20x%3D%22300%22%20y%3D%22260%22%20width%3D%22250%22%20height%3D%2270%22%20as%3D%22geometry%22%2F%3E%3C%2FmxCell%3E%3C%2Froot%3E%3C%2FmxGraphModel%3E&lt;/span&gt;" style="rounded=1;whiteSpace=wrap;html=1;strokeWidth=5;fillColor=#EBE543;strokeColor=#1E2563;align=center;shadow=1;sketch=0;" parent="1" vertex="1">
                    <mxGeometry x="624.5" y="230" width="200.5" height="70" as="geometry"/>
                </mxCell>
                <mxCell id="17" value="&lt;font color=&quot;#1e2563&quot; size=&quot;1&quot;&gt;&lt;b style=&quot;font-size: 30px&quot;&gt;Activity Analysis&lt;/b&gt;&lt;/font&gt;&lt;span style=&quot;color: rgba(0 , 0 , 0 , 0) ; font-family: monospace ; font-size: 0px&quot;&gt;%3CmxGraphModel%3E%3Croot%3E%3CmxCell%20id%3D%220%22%2F%3E%3CmxCell%20id%3D%221%22%20parent%3D%220%22%2F%3E%3CmxCell%20id%3D%222%22%20value%3D%22%26lt%3Bfont%20color%3D%26quot%3B%231e2563%26quot%3B%20size%3D%26quot%3B1%26quot%3B%26gt%3B%26lt%3Bb%20style%3D%26quot%3Bfont-size%3A%2030px%26quot%3B%26gt%3BCommunity%20Binning%26lt%3B%2Fb%26gt%3B%26lt%3B%2Ffont%26gt%3B%22%20style%3D%22rounded%3D1%3BwhiteSpace%3Dwrap%3Bhtml%3D1%3BstrokeWidth%3D5%3BfillColor%3D%23EBE543%3BstrokeColor%3D%231E2563%3Balign%3Dcenter%3B%22%20vertex%3D%221%22%20parent%3D%221%22%3E%3CmxGeometry%20x%3D%22300%22%20y%3D%22260%22%20width%3D%22250%22%20height%3D%2270%22%20as%3D%22geometry%22%2F%3E%3C%2FmxCell%3E%3C%2Froot%3E%3C%2FmxGraphModel%3E&lt;/span&gt;" style="rounded=1;whiteSpace=wrap;html=1;strokeWidth=5;fillColor=#EBE543;strokeColor=#1E2563;align=center;shadow=1;sketch=0;" parent="1" vertex="1">
                    <mxGeometry x="325.25" y="230" width="200.5" height="70" as="geometry"/>
                </mxCell>
                <mxCell id="68" style="edgeStyle=orthogonalEdgeStyle;rounded=0;orthogonalLoop=1;jettySize=auto;html=1;exitX=0.5;exitY=1;exitDx=0;exitDy=0;entryX=0.5;entryY=0;entryDx=0;entryDy=0;strokeColor=#000000;strokeWidth=5;shadow=1;sketch=0;" parent="1" source="4" target="17" edge="1">
                    <mxGeometry relative="1" as="geometry"/>
                </mxCell>
                <mxCell id="69" style="edgeStyle=orthogonalEdgeStyle;rounded=0;orthogonalLoop=1;jettySize=auto;html=1;exitX=0.75;exitY=1;exitDx=0;exitDy=0;strokeColor=#000000;strokeWidth=5;entryX=0.5;entryY=0;entryDx=0;entryDy=0;shadow=1;sketch=0;" parent="1" source="4" target="14" edge="1">
                    <mxGeometry relative="1" as="geometry">
                        <Array as="points">
                            <mxPoint x="469" y="210"/>
                            <mxPoint x="590" y="210"/>
                            <mxPoint x="590" y="181"/>
                            <mxPoint x="725" y="181"/>
                        </Array>
                    </mxGeometry>
                </mxCell>
                <mxCell id="52" style="edgeStyle=orthogonalEdgeStyle;rounded=0;orthogonalLoop=1;jettySize=auto;html=1;exitX=0.25;exitY=1;exitDx=0;exitDy=0;entryX=0.5;entryY=0;entryDx=0;entryDy=0;strokeColor=#000000;strokeWidth=5;shadow=1;sketch=0;" parent="1" source="4" target="13" edge="1">
                    <mxGeometry relative="1" as="geometry">
                        <Array as="points">
                            <mxPoint x="382" y="210"/>
                            <mxPoint x="260" y="210"/>
                            <mxPoint x="260" y="181"/>
                            <mxPoint x="130" y="181"/>
                        </Array>
                    </mxGeometry>
                </mxCell>
                <mxCell id="4" value="" style="rounded=0;whiteSpace=wrap;html=1;strokeWidth=5;fillColor=#EBE543;strokeColor=#1E2563;shadow=1;sketch=0;" parent="1" vertex="1">
                    <mxGeometry x="338" y="166" width="175" height="30" as="geometry"/>
                </mxCell>
                <mxCell id="12" style="edgeStyle=orthogonalEdgeStyle;rounded=0;orthogonalLoop=1;jettySize=auto;html=1;exitX=0.5;exitY=1;exitDx=0;exitDy=0;entryX=0.5;entryY=0;entryDx=0;entryDy=0;strokeColor=#000000;strokeWidth=5;shadow=1;sketch=0;" parent="1" source="10" target="4" edge="1">
                    <mxGeometry relative="1" as="geometry">
                        <Array as="points">
                            <mxPoint x="185" y="140"/>
                            <mxPoint x="426" y="140"/>
                        </Array>
                    </mxGeometry>
                </mxCell>
                <mxCell id="10" value="&lt;font color=&quot;#1e2563&quot; size=&quot;1&quot;&gt;&lt;b style=&quot;font-size: 30px&quot;&gt;Community Binning&lt;/b&gt;&lt;/font&gt;" style="rounded=1;whiteSpace=wrap;html=1;strokeWidth=5;fillColor=#EBE543;strokeColor=#1E2563;align=center;shadow=1;sketch=0;" parent="1" vertex="1">
                    <mxGeometry x="41" y="55" width="250" height="70" as="geometry"/>
                </mxCell>
                <mxCell id="50" style="edgeStyle=orthogonalEdgeStyle;rounded=0;orthogonalLoop=1;jettySize=auto;html=1;exitX=0;exitY=0.5;exitDx=0;exitDy=0;entryX=1;entryY=0.5;entryDx=0;entryDy=0;strokeColor=#000000;strokeWidth=5;shadow=1;sketch=0;" parent="1" source="2" target="10" edge="1">
                    <mxGeometry relative="1" as="geometry"/>
                </mxCell>
                <mxCell id="2" value="&lt;font color=&quot;#1e2563&quot; size=&quot;1&quot;&gt;&lt;b style=&quot;font-size: 30px&quot;&gt;Data Collection&lt;/b&gt;&lt;/font&gt;" style="rounded=1;whiteSpace=wrap;html=1;strokeWidth=5;fillColor=#EBE543;strokeColor=#1E2563;align=center;shadow=1;sketch=0;" parent="1" vertex="1">
                    <mxGeometry x="430" y="55" width="250" height="70" as="geometry"/>
                </mxCell>
                <mxCell id="49" style="edgeStyle=orthogonalEdgeStyle;rounded=0;orthogonalLoop=1;jettySize=auto;html=1;exitX=0;exitY=0.5;exitDx=0;exitDy=0;entryX=1;entryY=0.5;entryDx=0;entryDy=0;strokeColor=#000000;strokeWidth=5;shadow=1;sketch=0;" parent="1" source="7" target="2" edge="1">
                    <mxGeometry relative="1" as="geometry"/>
                </mxCell>
                <mxCell id="7" value="" style="ellipse;whiteSpace=wrap;html=1;aspect=fixed;strokeWidth=5;strokeColor=#1E2563;fillColor=#EBE543;shadow=1;sketch=0;" parent="1" vertex="1">
                    <mxGeometry x="720.25" y="50" width="80" height="80" as="geometry"/>
                </mxCell>
                <mxCell id="70" style="edgeStyle=orthogonalEdgeStyle;rounded=0;orthogonalLoop=1;jettySize=auto;html=1;entryX=1;entryY=0.5;entryDx=0;entryDy=0;strokeColor=#000000;strokeWidth=5;shadow=1;sketch=0;" edge="1" parent="1" source="5" target="7">
                    <mxGeometry relative="1" as="geometry">
                        <mxPoint x="810" y="650" as="sourcePoint"/>
                        <Array as="points">
                            <mxPoint x="840" y="620"/>
                            <mxPoint x="840" y="90"/>
                        </Array>
                    </mxGeometry>
                </mxCell>
                <mxCell id="5" value="" style="ellipse;whiteSpace=wrap;html=1;aspect=fixed;strokeWidth=5;fillColor=none;strokeColor=#1E2563;shadow=1;sketch=0;" parent="1" vertex="1">
                    <mxGeometry x="720.25" y="580" width="80" height="80" as="geometry"/>
                </mxCell>
                <mxCell id="63" style="edgeStyle=orthogonalEdgeStyle;rounded=0;orthogonalLoop=1;jettySize=auto;html=1;exitX=1;exitY=0.5;exitDx=0;exitDy=0;entryX=0;entryY=0.5;entryDx=0;entryDy=0;strokeColor=#000000;strokeWidth=5;shadow=1;sketch=0;" parent="1" source="61" target="6" edge="1">
                    <mxGeometry relative="1" as="geometry"/>
                </mxCell>
            </root>
        </mxGraphModel>
    </diagram>
</mxfile>